<svg xmlns="http://www.w3.org/2000/svg" viewBox="0 0 900 700" role="img" aria-labelledby="title desc">
  <title id="title">Abstract multimodal AI research visual</title>
  <desc id="desc">Layered panels, image tokens, and connected model nodes representing generative AI research.</desc>
  <defs>
    <linearGradient id="bg" x1="0" x2="1" y1="0" y2="1">
      <stop offset="0" stop-color="#0f3740"/>
      <stop offset="0.46" stop-color="#17313f"/>
      <stop offset="1" stop-color="#5f3d22"/>
    </linearGradient>
    <linearGradient id="warm" x1="0" x2="1" y1="0" y2="1">
      <stop offset="0" stop-color="#f7c46b"/>
      <stop offset="1" stop-color="#d2614b"/>
    </linearGradient>
    <linearGradient id="cool" x1="0" x2="1" y1="0" y2="1">
      <stop offset="0" stop-color="#9ee2dc"/>
      <stop offset="1" stop-color="#0e7c86"/>
    </linearGradient>
    <filter id="shadow" x="-20%" y="-20%" width="140%" height="140%">
      <feDropShadow dx="0" dy="24" stdDeviation="22" flood-color="#07161b" flood-opacity="0.28"/>
    </filter>
  </defs>
  <rect width="900" height="700" fill="url(#bg)"/>
  <path d="M0 554c118-52 224-58 318-18 130 56 252 52 367-12 79-44 151-56 215-37v213H0z" fill="#10242f" opacity=".72"/>
  <g opacity=".22" stroke="#ffffff" stroke-width="1">
    <path d="M68 96h756M68 178h756M68 260h756M68 342h756M68 424h756M68 506h756M68 588h756"/>
    <path d="M96 64v572M198 64v572M300 64v572M402 64v572M504 64v572M606 64v572M708 64v572M810 64v572"/>
  </g>
  <g filter="url(#shadow)">
    <rect x="92" y="94" width="312" height="400" rx="18" fill="#f8fbfa"/>
    <rect x="118" y="122" width="260" height="168" rx="12" fill="#dfe9e9"/>
    <circle cx="178" cy="184" r="38" fill="url(#warm)"/>
    <path d="M132 260l74-66 48 43 42-36 70 59z" fill="url(#cool)"/>
    <rect x="118" y="322" width="205" height="16" rx="8" fill="#17444f" opacity=".78"/>
    <rect x="118" y="356" width="240" height="12" rx="6" fill="#8aa0a7"/>
    <rect x="118" y="384" width="212" height="12" rx="6" fill="#8aa0a7"/>
    <rect x="118" y="426" width="96" height="32" rx="16" fill="#0e7c86"/>
  </g>
  <g filter="url(#shadow)">
    <rect x="494" y="140" width="284" height="352" rx="18" fill="#ffffff" opacity=".96"/>
    <rect x="526" y="176" width="220" height="34" rx="17" fill="#10242f"/>
    <g fill="#0e7c86">
      <circle cx="568" cy="278" r="30"/>
      <circle cx="670" cy="248" r="30"/>
      <circle cx="694" cy="360" r="30"/>
      <circle cx="582" cy="398" r="30"/>
    </g>
    <g stroke="#b77d17" stroke-width="8" stroke-linecap="round" opacity=".72">
      <path d="M592 270l54-16"/>
      <path d="M674 278l14 50"/>
      <path d="M670 372l-58 20"/>
      <path d="M590 368l-18-60"/>
      <path d="M596 292l76 52"/>
    </g>
    <g fill="#f7c46b">
      <circle cx="568" cy="278" r="12"/>
      <circle cx="670" cy="248" r="12"/>
      <circle cx="694" cy="360" r="12"/>
      <circle cx="582" cy="398" r="12"/>
    </g>
    <rect x="526" y="444" width="92" height="18" rx="9" fill="#d2614b"/>
    <rect x="634" y="444" width="112" height="18" rx="9" fill="#8aa0a7"/>
  </g>
  <g opacity=".86">
    <rect x="336" y="70" width="190" height="72" rx="18" fill="#10242f"/>
    <text x="431" y="114" text-anchor="middle" font-family="Arial, sans-serif" font-size="24" font-weight="700" fill="#ffffff">Vision AI</text>
    <rect x="382" y="548" width="198" height="72" rx="18" fill="#f8fbfa"/>
    <text x="481" y="592" text-anchor="middle" font-family="Arial, sans-serif" font-size="22" font-weight="700" fill="#10242f">On-device FL</text>
  </g>
  <g stroke="#9ee2dc" stroke-width="4" stroke-linecap="round" opacity=".62">
    <path d="M404 182c58 28 88 66 90 114"/>
    <path d="M488 492c-28 32-32 62-14 92"/>
    <path d="M404 410c42 62 88 92 138 91"/>
  </g>
</svg>
